<?xml version="1.0" encoding="UTF-8" standalone="no"?>
<svg width="800" height="600" xmlns="http://www.w3.org/2000/svg">
<rect width="800" height="600" fill="white"/>
<rect width="798" height="598" fill="none" stroke="#cccccc" stroke-width="2"/>
<rect x="100" y="100" width="600" height="400" fill="none" stroke="#ff0000" stroke-width="1" stroke-dasharray="5,5"/>
<polygon points="200,300 600,300 400,500" fill="rgba(255,0,0,0.3)" stroke="black" stroke-width="2"/>
<polygon points="200,300 600,300 400,100" fill="rgba(0,0,255,0.3)" stroke="black" stroke-width="2"/>
<polygon points="200,300 400,500 400,100" fill="rgba(0,255,0,0.1)" stroke="black" stroke-width="1" stroke-dasharray="5,5"/>
<polygon points="600,300 400,500 400,100" fill="rgba(255,255,0,0.1)" stroke="black" stroke-width="1" stroke-dasharray="5,5"/>
<circle cx="200" cy="300" r="8" fill="black"/>
<text x="180" y="285" font-size="14" font-weight="bold">v1(1905)</text>
<circle cx="600" cy="300" r="8" fill="black"/>
<text x="615" y="285" font-size="14" font-weight="bold">v2(1915)</text>
<circle cx="400" cy="500" r="8" fill="black"/>
<text x="400" y="485" font-size="14" font-weight="bold">v3(1916)</text>
<circle cx="400" cy="100" r="8" fill="black"/>
<text x="400" y="125" font-size="14" font-weight="bold">v4(1904)</text>
<line x1="200" y1="300" x2="600" y2="300" stroke="black" stroke-width="3"/>
<text x="400" y="285" font-size="12" font-weight="bold">a=0.00486251</text>
<line x1="200" y1="300" x2="400" y2="500" stroke="black" stroke-width="2"/>
<text x="285" y="400" font-size="12">b=0.00965995</text>
<line x1="600" y1="300" x2="400" y2="500" stroke="black" stroke-width="2"/>
<text x="515" y="400" font-size="12">c=0.00710805</text>
<line x1="200" y1="300" x2="400" y2="100" stroke="black" stroke-width="2"/>
<text x="285" y="200" font-size="12">d=0.0104581</text>
<line x1="600" y1="300" x2="400" y2="100" stroke="black" stroke-width="2"/>
<text x="515" y="200" font-size="12">e=0.00984581</text>
<rect x="10" y="520" width="780" height="70" fill="#f0f0f0" stroke="#888888"/>
<text x="20" y="540" font-size="12">Edge 11028 between v1905 and v1915 | Layout valid: No</text>
<text x="20" y="560" font-size="12">Cross products: -0.5, -0.5 (product: 0.25)</text>
<text x="20" y="580" font-size="12">Convexity: Convex</text>
<text x="180" y="280" font-size="12" font-weight="bold"><v1v3v4: 28.9256°</text>
<text x="615" y="280" font-size="12" font-weight="bold"><v2v3v4: 106.08°</text>
<text x="380" y="515" font-size="12" font-weight="bold"><v1v2v3: 44.9944°</text>
<text x="415" y="115" font-size="12" font-weight="bold"><v1v2v4: 27.5004°</text>
<text x="380" y="480" font-size="12" font-weight="bold"><v1v3v4: 83.2748°</text>
<text x="415" y="80" font-size="12" font-weight="bold"><v2v3v4: 69.2249°</text>
</svg>
